<svg xmlns="http://www.w3.org/2000/svg" viewBox="0 0 64 64" fill="none">
  <defs>
    <linearGradient id="tile" x1="10" y1="6" x2="54" y2="58" gradientUnits="userSpaceOnUse">
      <stop stop-color="#0f2135" />
      <stop offset="1" stop-color="#050b16" />
    </linearGradient>
    <linearGradient id="edge" x1="12" y1="9" x2="52" y2="55" gradientUnits="userSpaceOnUse">
      <stop stop-color="#7dd3fc" stop-opacity=".55" />
      <stop offset=".58" stop-color="#38bdf8" stop-opacity=".2" />
      <stop offset="1" stop-color="#34d399" stop-opacity=".42" />
    </linearGradient>
    <linearGradient id="mark" x1="17" y1="18" x2="47" y2="46" gradientUnits="userSpaceOnUse">
      <stop stop-color="#bae6fd" />
      <stop offset=".48" stop-color="#7dd3fc" />
      <stop offset="1" stop-color="#34d399" />
    </linearGradient>
    <filter id="glow" x="8" y="10" width="48" height="44" color-interpolation-filters="sRGB" filterUnits="userSpaceOnUse">
      <feGaussianBlur stdDeviation="2.4" />
    </filter>
  </defs>

  <rect width="64" height="64" rx="18" fill="#08111f" />
  <rect x="3.5" y="3.5" width="57" height="57" rx="16.5" fill="url(#tile)" stroke="url(#edge)" />

  <g filter="url(#glow)" opacity=".55">
    <path d="M23.7 25.4h-3.1a6.6 6.6 0 0 0 0 13.2h9.1c2.4 0 4.5-1.3 5.6-3.3M40.3 38.6h3.1a6.6 6.6 0 0 0 0-13.2h-9.1a6.6 6.6 0 0 0-5.6 3.3" stroke="#7dd3fc" stroke-width="5" stroke-linecap="round" />
  </g>

  <g stroke="url(#mark)" stroke-linecap="round" stroke-linejoin="round">
    <path d="M23.7 25.4h-3.1a6.6 6.6 0 0 0 0 13.2h9.1c2.4 0 4.5-1.3 5.6-3.3" stroke-width="4.2" />
    <path d="M40.3 38.6h3.1a6.6 6.6 0 0 0 0-13.2h-9.1a6.6 6.6 0 0 0-5.6 3.3" stroke-width="4.2" />
    <path d="M25.2 32h13.6" stroke-width="4.2" />
  </g>

  <path d="M22.6 32h18.8" stroke="#08111f" stroke-opacity=".55" stroke-width="1.2" stroke-linecap="round" />
  <circle cx="18.8" cy="32" r="1.55" fill="#bae6fd" />
  <circle cx="45.2" cy="32" r="1.55" fill="#34d399" />
</svg>
